PathFileType	4	(X/Y/Z)	C:/Users/beibeiliu/ov580/test_trc/User3\sequence.7_training_dense_left.trc
DataRate	CameraRate	NumFrames	NumMarkers	Units	OrigDataRate	OrigDataStartFrame	OrigNumFrames
120	120	11	19	mm	120	1	80
Frame#	Time	ThumbCMC			ThumbMCP			ThumbIP			ThumbTip			IndexMCP			IndexPIP			IndexTip			MiddleMCP			MiddlePIP			MiddleTip			RingMCP			RingPIP			RingTip			PinkyMCP			PinkyPIP			PinkyTip			BackHand1			BackHand2			BackHand3	
		X0	Y0	Z0	X1	Y1	Z1	X2	Y2	Z2	X3	Y3	Z3	X4	Y4	Z4	X5	Y5	Z5	X6	Y6	Z6	X7	Y7	Z7	X8	Y8	Z8	X9	Y9	Z9	X10	Y10	Z10	X11	Y11	Z11	X12	Y12	Z12	X13	Y13	Z13	X14	Y14	Z14	X15	Y15	Z15	X16	Y16	Z16	X17	Y17	Z17	X18	Y18	Z18	
0	0	-83.7832	9.83506	-9.7092	-66.7704	2.24705	-32.5494	-47.6002	-1.615	-56.2644	-37.9141	-8.24206	-79.928	-106.819	29.4969	-84.3121	-99.05	27.4409	-110.954	-94.2262	19.076	-141.114	-131.67	29.7825	-89.5537	-133.168	26.7085	-119.443	-133.656	12.2269	-149.605	-149.802	20.4371	-83.8226	-154.59	17.9184	-106.072	-158.951	6.94612	-131.836	-170.512	8.10374	-67.1412	-175.853	4.12824	-85.878	-177.661	-2.9916	-110.72	-148.131	28.7902	-31.1798	-147.658	25.4248	3.67975	-116.129	32.4976	-17.2406	
1	0.00833333	-88.7099	8.64589	-13.5369	-69.7241	2.20622	-35.6373	-57.1125	-3.42298	-59.5541	-43.5224	-10.2802	-81.8456	-110.943	30.1012	-87.1045	-104.949	27.3686	-116.805	-101.339	17.1331	-143.332	-134.577	30.6081	-93.3374	-135.716	27.6365	-118.252	-137.984	12.0011	-150.572	-157.589	21.4139	-82.4142	-157.351	18.4851	-107.648	-162.636	5.73747	-137.709	-170.945	9.12193	-64.752	-180.105	4.45123	-92.2413	-184.005	-2.2302	-111.073	-152.877	27.7612	-28.4064	-149.842	27.5385	0.0990084	-118.147	32.07	-20.1923	
2	0.0166667	-90.9824	6.3122	-12.1729	-74.0563	-0.0417099	-33.8838	-56.2163	-5.09772	-63.3229	-48.9981	-11.8755	-79.1008	-107.997	29.6035	-90.8066	-107.661	26.5127	-114.944	-100.441	17.3873	-139.915	-138.541	30.324	-90.0861	-137.965	26.4377	-119.532	-136.96	12.4626	-149.537	-154.198	22.2697	-81.0831	-159.952	17.1583	-112.137	-165.208	4.88482	-136.63	-174.841	10.3168	-66.4178	-182.181	4.28687	-90.4303	-183.785	-4.51663	-111.076	-155.379	28.3556	-28.8757	-150.797	25.4379	-0.526303	-121.121	30.3298	-17.4034	
3	0.025	-88.3285	7.67755	-17.0523	-74.8969	0.224707	-37.4517	-58.735	-5.26072	-62.1871	-49.0161	-12.2529	-78.6831	-111.569	29.6625	-90.5341	-104.573	25.9752	-118.848	-107.318	15.6976	-139.124	-136.491	30.9061	-89.1696	-138.829	25.8707	-121.924	-139.977	10.0179	-149.658	-154.474	23.644	-83.972	-160.907	18.014	-111.312	-162.641	6.80326	-132.899	-170.664	10.9871	-65.8423	-178.625	7.56488	-91.266	-184.604	-2.7821	-112.428	-154.143	28.4496	-32.0669	-155.061	25.6514	-1.31185	-120.259	31.5275	-20.3821	
4	0.0333333	-93.3276	7.24538	-13.4384	-73.9946	1.74808	-39.1929	-56.8247	-4.15476	-60.998	-47.6157	-10.8261	-81.2438	-109.627	31.8708	-87.2415	-107.184	27.6461	-114.737	-103.682	13.2057	-138.905	-135.286	34.1863	-94.8092	-136.225	24.9763	-124.332	-136.807	7.85207	-147.745	-159.124	23.8599	-82.8834	-159.421	18.5872	-113.615	-162.428	-0.0582918	-135.378	-176.559	12.1052	-68.2079	-177.145	8.84601	-90.9271	-182.112	-5.12921	-113.466	-155.759	30.9403	-30.8705	-150.493	27.6881	-2.82328	-121.777	31.5709	-20.1279	
5	0.0416667	-93.8351	10.4163	-16.7543	-76.3607	4.57294	-38.0195	-60.7324	0.0568651	-64.6391	-49.3727	-7.20642	-83.0088	-110.185	33.9901	-85.539	-111.763	24.3717	-117.83	-105.917	6.30544	-135.306	-139.637	34.4224	-92.9545	-136.788	25.5248	-121.661	-137.918	-1.71724	-142.4	-159.712	26.5052	-82.4492	-161.182	17.2318	-112.795	-160.279	-4.43468	-129.096	-174.44	16.0735	-67.3783	-176.888	11.2476	-90.0787	-176.559	-9.92761	-109.795	-153.222	32.1078	-26.8574	-153.888	27.4155	-0.0151689	-119.622	33.8232	-17.7956	
6	0.05	-92.5619	12.479	-15.5389	-75.517	6.48752	-38.5684	-63.991	0.444545	-60.725	-54.7122	-3.97817	-82.5785	-115.861	34.7813	-89.5881	-109.516	24.3814	-113.849	-108.884	-2.81026	-127.637	-140.486	35.3877	-92.9844	-135.456	24.1421	-119.077	-132.367	-13.2327	-132.525	-154.918	28.849	-80.1506	-158.506	16.4907	-109.879	-150.111	-15.6465	-120.524	-176.654	17.1024	-67.564	-175.978	6.93548	-94.9414	-168.555	-16.2964	-104.942	-152.966	31.4427	-26.2766	-156.518	27.6269	2.41223	-124.154	36.2819	-14.7152	
7	0.0583333	-94.3623	13.3119	-9.90996	-78.4029	7.56544	-35.193	-62.209	5.72556	-63.6423	-53.574	-0.203734	-82.702	-115.837	35.4587	-88.0443	-109.21	15.0048	-113.754	-108.593	-12.9434	-113.524	-138.471	34.3389	-92.8678	-134.537	16.3668	-116.811	-124.409	-24.2987	-109.623	-154.906	28.2011	-82.1683	-158.119	7.65896	-107.061	-147.064	-21.7161	-101.221	-176.307	18.1508	-71.1172	-172.913	4.94116	-92.6384	-157.721	-24.1737	-90.8747	-159.824	32.2079	-25.7918	-158.327	28.595	0.772414	-123.11	39.2021	-14.5434	
8	0.0666667	-96.6548	14.3066	-12.4009	-81.6725	9.54185	-37.8036	-68.3575	7.26333	-61.7714	-57.7624	3.79001	-85.7965	-115.805	34.5606	-85.6045	-109.064	7.1334	-108.199	-101.995	-18.9525	-88.6197	-137.47	31.6337	-90.0362	-133.471	2.32407	-110.506	-124.083	-24.0642	-85.0457	-156.112	23.5046	-85.1007	-153.348	-2.41504	-101.332	-137.523	-23.1136	-77.8278	-175.781	14.413	-69.4855	-168.073	-2.97113	-90.6001	-152.634	-26.6188	-74.0529	-158.862	33.6094	-28.0866	-160.655	27.4508	3.29702	-126.463	37.5526	-13.5114	
9	0.075	-100.432	15.1726	-10.8179	-79.2606	11.557	-36.6324	-64.5563	9.96456	-58.951	-59.9351	4.97428	-81.5132	-114.27	30.4948	-86.8709	-109.987	2.91748	-101.441	-105.749	-16.7511	-72.5115	-134.589	25.0304	-92.178	-125.95	-5.48027	-101.51	-122.144	-18.9241	-65.2859	-150.903	17.6522	-86.69	-149.598	-12.0985	-92.6864	-137.376	-19.2042	-60.4129	-170.124	11.2396	-71.3062	-160.713	-14.9535	-83.3404	-148.34	-22.463	-57.9875	-163.365	34.6542	-28.9181	-162.577	30.0242	-1.42093	-127.367	39.1854	-12.9849	
10	0.0833333	-98.7916	19.0505	-13.1158	-81.054	14.7679	-36.0313	-65.3403	13.1767	-60.9821	-55.3011	9.8271	-83.1559	-115.374	25.5495	-87.1653	-105.491	-3.25831	-92.4805	-108.02	-10.1776	-57.8426	-133.356	18.1778	-92.1021	-123.605	-10.6068	-91.6085	-125.731	-12.5925	-52.7581	-154.208	9.86916	-83.2618	-144.226	-18.255	-81.7359	-135.258	-13.1801	-46.8456	-167.088	6.46339	-72.9603	-153.799	-20.2046	-74.3486	-147.295	-16.9813	-45.6592	-163.925	35.8129	-31.0145	-162.577	30.3604	-4.29843	-130.461	41.3894	-15.2755	
